<svg width="242" height="68" viewBox="0 0 242 68" fill="none" xmlns="http://www.w3.org/2000/svg">
<path d="M88.9 50.45C85.3333 50.45 82.2833 49.7167 79.75 48.25C77.2167 46.7833 75.2667 44.7 73.9 42C72.5667 39.2667 71.9 36.05 71.9 32.35C71.9 29.5833 72.2833 27.1 73.05 24.9C73.8167 22.6667 74.9167 20.7667 76.35 19.2C77.8167 17.6 79.6 16.3833 81.7 15.55C83.8333 14.7167 86.2333 14.3 88.9 14.3C90.8667 14.3 92.75 14.5667 94.55 15.1C96.3833 15.6333 97.9667 16.4 99.3 17.4C99.8667 17.7667 100.233 18.2167 100.4 18.75C100.6 19.25 100.633 19.7333 100.5 20.2C100.4 20.6667 100.183 21.0667 99.85 21.4C99.5167 21.7 99.0833 21.8667 98.55 21.9C98.05 21.9333 97.5 21.75 96.9 21.35C95.8 20.5167 94.5833 19.9 93.25 19.5C91.9167 19.1 90.5167 18.9 89.05 18.9C86.5167 18.9 84.3833 19.4333 82.65 20.5C80.9167 21.5333 79.6 23.05 78.7 25.05C77.8 27.05 77.35 29.4833 77.35 32.35C77.35 35.2167 77.8 37.6667 78.7 39.7C79.6 41.7 80.9167 43.2333 82.65 44.3C84.3833 45.3333 86.5167 45.85 89.05 45.85C90.5167 45.85 91.9167 45.65 93.25 45.25C94.6167 44.8167 95.9 44.1833 97.1 43.35C97.7 42.9833 98.2333 42.8167 98.7 42.85C99.2 42.8833 99.6167 43.05 99.95 43.35C100.283 43.65 100.5 44.0333 100.6 44.5C100.733 44.9333 100.717 45.4 100.55 45.9C100.417 46.3667 100.1 46.7667 99.6 47.1C98.2333 48.2 96.6167 49.0333 94.75 49.6C92.8833 50.1667 90.9333 50.45 88.9 50.45ZM108.839 50.35C108.039 50.35 107.422 50.1333 106.989 49.7C106.556 49.2333 106.339 48.6 106.339 47.8V16.95C106.339 16.1167 106.556 15.4833 106.989 15.05C107.422 14.6167 108.039 14.4 108.839 14.4C109.639 14.4 110.256 14.6167 110.689 15.05C111.156 15.4833 111.389 16.1167 111.389 16.95V30.8H110.689C111.422 28.9333 112.572 27.5333 114.139 26.6C115.706 25.6333 117.506 25.15 119.539 25.15C121.472 25.15 123.072 25.5167 124.339 26.25C125.639 26.95 126.606 28.0333 127.239 29.5C127.872 30.9333 128.189 32.75 128.189 34.95V47.8C128.189 48.6 127.972 49.2333 127.539 49.7C127.106 50.1333 126.489 50.35 125.689 50.35C124.856 50.35 124.222 50.1333 123.789 49.7C123.356 49.2333 123.139 48.6 123.139 47.8V35.25C123.139 33.15 122.722 31.6167 121.889 30.65C121.089 29.6833 119.822 29.2 118.089 29.2C116.056 29.2 114.422 29.8333 113.189 31.1C111.989 32.3667 111.389 34.0667 111.389 36.2V47.8C111.389 49.5 110.539 50.35 108.839 50.35ZM142.948 50.45C141.248 50.45 139.714 50.1167 138.348 49.45C137.014 48.7833 135.964 47.8833 135.198 46.75C134.431 45.6167 134.048 44.3333 134.048 42.9C134.048 41.1 134.498 39.6833 135.398 38.65C136.331 37.5833 137.848 36.8333 139.948 36.4C142.081 35.9333 144.948 35.7 148.548 35.7H150.898V38.8H148.598C146.198 38.8 144.298 38.9167 142.898 39.15C141.498 39.3833 140.498 39.7833 139.898 40.35C139.331 40.8833 139.048 41.6333 139.048 42.6C139.048 43.8667 139.481 44.9 140.348 45.7C141.214 46.4667 142.414 46.85 143.948 46.85C145.181 46.85 146.264 46.5667 147.198 46C148.131 45.4 148.864 44.6 149.398 43.6C149.964 42.6 150.248 41.45 150.248 40.15V34.4C150.248 32.5 149.848 31.1333 149.048 30.3C148.248 29.4667 146.931 29.05 145.098 29.05C144.031 29.05 142.914 29.1833 141.748 29.45C140.614 29.7167 139.431 30.1667 138.198 30.8C137.631 31.0667 137.148 31.15 136.748 31.05C136.348 30.95 136.031 30.7333 135.798 30.4C135.564 30.0333 135.431 29.65 135.398 29.25C135.398 28.8167 135.498 28.4 135.698 28C135.931 27.6 136.314 27.3 136.848 27.1C138.314 26.4 139.764 25.9 141.198 25.6C142.631 25.3 143.981 25.15 145.248 25.15C147.481 25.15 149.314 25.5 150.748 26.2C152.214 26.9 153.298 27.9667 153.998 29.4C154.698 30.8333 155.048 32.6833 155.048 34.95V47.8C155.048 48.6 154.848 49.2333 154.448 49.7C154.048 50.1333 153.464 50.35 152.698 50.35C151.964 50.35 151.381 50.1333 150.948 49.7C150.514 49.2333 150.298 48.6 150.298 47.8V44.55H150.748C150.481 45.7833 149.981 46.85 149.248 47.75C148.548 48.6167 147.664 49.2833 146.598 49.75C145.531 50.2167 144.314 50.45 142.948 50.45ZM164.553 50.35C163.72 50.35 163.086 50.1333 162.653 49.7C162.22 49.2333 162.003 48.6 162.003 47.8V27.8C162.003 26.9667 162.22 26.3333 162.653 25.9C163.086 25.4667 163.686 25.25 164.453 25.25C165.253 25.25 165.853 25.4667 166.253 25.9C166.686 26.3333 166.903 26.9667 166.903 27.8V31.45H166.403C166.936 29.45 167.92 27.9333 169.353 26.9C170.786 25.8667 172.62 25.2667 174.853 25.1C175.453 25.0667 175.92 25.2167 176.253 25.55C176.62 25.8833 176.82 26.4 176.853 27.1C176.92 27.8 176.77 28.3667 176.403 28.8C176.036 29.2 175.47 29.4333 174.703 29.5L173.753 29.6C171.586 29.8 169.936 30.4833 168.803 31.65C167.67 32.8167 167.103 34.4167 167.103 36.45V47.8C167.103 48.6 166.886 49.2333 166.453 49.7C166.053 50.1333 165.42 50.35 164.553 50.35ZM183.155 50.3C182.355 50.3 181.739 50.0667 181.305 49.6C180.872 49.1 180.655 48.4167 180.655 47.55V28.05C180.655 27.1833 180.872 26.5167 181.305 26.05C181.739 25.5833 182.355 25.35 183.155 25.35C183.955 25.35 184.572 25.5833 185.005 26.05C185.472 26.5167 185.705 27.1833 185.705 28.05V47.55C185.705 48.4167 185.489 49.1 185.055 49.6C184.622 50.0667 183.989 50.3 183.155 50.3ZM183.155 20.15C182.155 20.15 181.372 19.9 180.805 19.4C180.272 18.9 180.005 18.2 180.005 17.3C180.005 16.3667 180.272 15.6667 180.805 15.2C181.372 14.7 182.155 14.45 183.155 14.45C184.155 14.45 184.922 14.7 185.455 15.2C186.022 15.6667 186.305 16.3667 186.305 17.3C186.305 18.2 186.022 18.9 185.455 19.4C184.922 19.9 184.155 20.15 183.155 20.15ZM201.514 50.45C199.547 50.45 197.897 50.0833 196.564 49.35C195.264 48.6167 194.28 47.5333 193.614 46.1C192.98 44.6333 192.664 42.8 192.664 40.6V27.8C192.664 26.9333 192.88 26.3 193.314 25.9C193.747 25.4667 194.364 25.25 195.164 25.25C195.964 25.25 196.58 25.4667 197.014 25.9C197.48 26.3 197.714 26.9333 197.714 27.8V40.65C197.714 42.6167 198.114 44.0667 198.914 45C199.714 45.9333 200.98 46.4 202.714 46.4C204.614 46.4 206.147 45.7667 207.314 44.5C208.514 43.2 209.114 41.5 209.114 39.4V27.8C209.114 26.9333 209.33 26.3 209.764 25.9C210.197 25.4667 210.83 25.25 211.664 25.25C212.464 25.25 213.08 25.4667 213.514 25.9C213.947 26.3 214.164 26.9333 214.164 27.8V47.8C214.164 49.5 213.347 50.35 211.714 50.35C210.947 50.35 210.347 50.1333 209.914 49.7C209.48 49.2333 209.264 48.6 209.264 47.8V43.55L209.914 44.65C209.247 46.5167 208.18 47.95 206.714 48.95C205.247 49.95 203.514 50.45 201.514 50.45ZM229.83 50.45C228.364 50.45 226.847 50.2833 225.28 49.95C223.747 49.6167 222.33 49.05 221.03 48.25C220.597 47.95 220.297 47.6167 220.13 47.25C219.964 46.8833 219.897 46.5167 219.93 46.15C219.997 45.75 220.147 45.4167 220.38 45.15C220.647 44.85 220.964 44.6667 221.33 44.6C221.73 44.5333 222.147 44.6167 222.58 44.85C223.88 45.5833 225.13 46.1 226.33 46.4C227.53 46.6667 228.714 46.8 229.88 46.8C231.647 46.8 232.98 46.4833 233.88 45.85C234.78 45.2167 235.23 44.3667 235.23 43.3C235.23 42.4333 234.93 41.7667 234.33 41.3C233.73 40.8 232.83 40.4167 231.63 40.15L226.88 39.2C224.814 38.7667 223.247 38 222.18 36.9C221.114 35.8 220.58 34.4 220.58 32.7C220.58 31.1667 220.997 29.8333 221.83 28.7C222.664 27.5667 223.83 26.7 225.33 26.1C226.83 25.4667 228.564 25.15 230.53 25.15C231.997 25.15 233.38 25.3333 234.68 25.7C235.98 26.0667 237.18 26.6167 238.28 27.35C238.714 27.5833 238.997 27.9 239.13 28.3C239.264 28.6667 239.28 29.0333 239.18 29.4C239.114 29.7667 238.947 30.1 238.68 30.4C238.414 30.6667 238.08 30.8333 237.68 30.9C237.314 30.9333 236.897 30.8333 236.43 30.6C235.43 29.9667 234.43 29.5167 233.43 29.25C232.464 28.9833 231.497 28.85 230.53 28.85C228.764 28.85 227.43 29.1833 226.53 29.85C225.664 30.4833 225.23 31.35 225.23 32.45C225.23 33.2833 225.497 33.9667 226.03 34.5C226.564 35.0333 227.397 35.4167 228.53 35.65L233.28 36.6C235.447 37.0333 237.08 37.7667 238.18 38.8C239.314 39.8333 239.88 41.2333 239.88 43C239.88 45.3 238.964 47.1167 237.13 48.45C235.297 49.7833 232.864 50.45 229.83 50.45Z" fill="#060530"/>
<g clip-path="url(#clip0_41_38717)">
<path fill-rule="evenodd" clip-rule="evenodd" d="M8.58152 26.9509C20.163 24.5029 31.9986 30.3574 37.2599 39.3829C33.9089 30.0166 21.2025 17.2219 10.1727 21.7564C8.94284 22.3306 7.83952 23.0764 6.88551 24.0339C5.4847 25.5038 5.90984 27.5263 8.58152 26.9509Z" fill="url(#paint0_linear_41_38717)"/>
<path fill-rule="evenodd" clip-rule="evenodd" d="M38.4476 41.895C35.6049 45.5349 26.4421 49.5592 14.9244 51.8791C13.3755 52.1982 13.2695 54.1989 15.0304 54.3694C16.3036 54.4758 19.2944 54.327 20.2268 54.3053C20.8423 54.2836 21.2241 54.5604 21.1386 55.2204C21.011 56.3918 21.4566 56.8379 22.6443 56.7316C24.0234 56.5828 26.6108 56.1356 27.7779 55.7741C29.4956 55.2204 29.9834 56.7533 28.8596 57.8606C28.7319 57.967 28.6259 58.0734 28.4994 58.1797C27.2696 59.3511 27.7141 60.9263 29.3474 60.9045C31.7661 60.9045 34.0776 60.3086 36.2626 59.2653C43.8137 55.0935 41.7564 45.9822 38.4476 41.895Z" fill="url(#paint1_linear_41_38717)"/>
<path fill-rule="evenodd" clip-rule="evenodd" d="M11.0219 56.712C8.92235 57.2016 7.50102 58.7768 7.84068 60.225C8.18034 61.672 10.1522 62.4384 12.2528 61.9283C14.3523 61.4387 15.7737 59.8635 15.434 58.4153C15.0943 56.9888 13.1214 56.2007 11.0219 56.712Z" fill="url(#paint2_linear_41_38717)"/>
<path fill-rule="evenodd" clip-rule="evenodd" d="M2.28185 59.0319C0.797837 59.3945 -0.199485 60.5007 0.0341733 61.5234C0.267832 62.5449 1.6675 63.0768 3.15266 62.737C4.63781 62.3756 5.63399 61.2683 5.40147 60.2467C5.16668 59.2447 3.76701 58.691 2.28185 59.0319Z" fill="url(#paint3_linear_41_38717)"/>
<path fill-rule="evenodd" clip-rule="evenodd" d="M8.90067 54.987C10.0678 54.9229 10.9797 54.1988 10.9375 53.3901C10.8737 52.6019 9.87633 52.0059 8.71032 52.0917C7.54431 52.1558 6.65299 52.8799 6.69516 53.6669C6.73619 54.4768 7.73352 55.0728 8.90067 54.987Z" fill="url(#paint4_linear_41_38717)"/>
<path fill-rule="evenodd" clip-rule="evenodd" d="M20.2268 59.5431C18.8477 59.7776 17.872 60.7145 18.0213 61.6502C18.1695 62.5871 19.4005 63.183 20.758 62.9485C22.1155 62.7358 23.1128 61.7989 22.9635 60.862C22.8153 59.9263 21.5843 59.3303 20.2268 59.5431Z" fill="url(#paint5_linear_41_38717)"/>
<path fill-rule="evenodd" clip-rule="evenodd" d="M59.9989 9.30368C60.0205 6.74932 59.8074 4.45006 59.3412 2.57633C58.8317 0.469249 56.3287 0.383456 56.1384 2.87489C55.8409 7.21718 54.7592 11.667 52.7874 15.3927C49.0967 22.3752 43.4547 25.0153 35.9036 24.0361C46.4444 27.3134 59.2774 21.8627 59.9989 9.30368Z" fill="url(#paint6_linear_41_38717)"/>
<path fill-rule="evenodd" clip-rule="evenodd" d="M59.9989 9.30371C59.8291 11.6453 59.0016 13.7959 57.7501 15.6478C53.4018 22.119 46.2108 24.7168 38.6596 24.3118C34.7148 24.0773 30.7688 23.0775 26.9722 21.7575C35.287 27.9312 44.3016 37.6167 49.9653 44.8336C56.2649 33.8063 59.9351 19.3942 59.9989 9.30371Z" fill="url(#paint7_linear_41_38717)"/>
<path fill-rule="evenodd" clip-rule="evenodd" d="M36.2627 59.2664C41.6288 56.6903 46.253 51.3471 49.9653 44.8326C45.9566 35.5932 37.1962 25.5885 26.9722 21.7564C22.242 19.9685 15.2209 19.3725 10.1727 21.7564C14.4789 20.1813 19.0392 21.4796 22.8575 23.6931C29.6872 27.6533 35.9025 35.4662 38.6597 42.428C40.6965 47.5791 41.63 55.8816 36.2627 59.2664Z" fill="url(#paint8_linear_41_38717)"/>
<path fill-rule="evenodd" clip-rule="evenodd" d="M39.8906 41.9808C37.2599 35.3381 31.0025 27.0996 23.8548 23.0342C20.1425 20.9271 15.6676 19.9479 11.7855 21.0964C11.2338 21.2874 10.7038 21.5013 10.1738 21.7564C14.48 20.1812 19.0403 21.4796 22.8586 23.6931C29.6871 27.6533 35.9024 35.4662 38.6596 42.428C40.6964 47.5802 41.6288 55.8816 36.2626 59.2664C42.0744 56.5839 42.3503 48.1327 39.8906 41.9808Z" fill="url(#paint9_linear_41_38717)"/>
<path fill-rule="evenodd" clip-rule="evenodd" d="M22.8575 23.6942C19.0392 21.4808 14.4788 20.1813 10.1727 21.7564C9.72703 21.9486 9.30302 22.182 8.89954 22.4382C14.4355 19.6917 22.1987 23.5878 26.5265 29.463C31.0446 31.7622 34.8413 35.2317 37.2599 39.383C34.0993 33.2951 28.7115 27.0791 22.8575 23.6942Z" fill="url(#paint10_linear_41_38717)"/>
<path fill-rule="evenodd" clip-rule="evenodd" d="M38.6597 42.4282C38.5958 42.236 38.5115 42.0667 38.4477 41.8962C37.9815 42.4922 37.3238 43.1099 36.5385 43.7276C39.1692 47.2829 40.8025 57.5861 33.9717 60.1828C34.757 59.9277 35.5207 59.6292 36.2627 59.2677C41.63 55.8817 40.6965 47.5792 38.6597 42.4282Z" fill="url(#paint11_linear_41_38717)"/>
<path fill-rule="evenodd" clip-rule="evenodd" d="M39.8051 21.1181C43.1561 21.1181 45.8711 18.3933 45.8711 15.0508C45.8711 11.6877 43.1561 8.96289 39.8051 8.96289C36.4746 8.96289 33.7596 11.6877 33.7596 15.0508C33.7596 18.3933 36.4746 21.1181 39.8051 21.1181Z" fill="url(#paint12_linear_41_38717)"/>
</g>
<defs>
<linearGradient id="paint0_linear_41_38717" x1="-8.58438" y1="30.0986" x2="45.2814" y2="30.0986" gradientUnits="userSpaceOnUse">
<stop stop-color="#A1F7FF"/>
<stop offset="0.2956" stop-color="#2CACE9"/>
<stop offset="0.6601" stop-color="#5476C3"/>
<stop offset="1" stop-color="#5F2A97"/>
</linearGradient>
<linearGradient id="paint1_linear_41_38717" x1="-8.58444" y1="51.4006" x2="45.2814" y2="51.4006" gradientUnits="userSpaceOnUse">
<stop stop-color="#A1F7FF"/>
<stop offset="0.2956" stop-color="#2CACE9"/>
<stop offset="0.6601" stop-color="#5476C3"/>
<stop offset="1" stop-color="#5F2A97"/>
</linearGradient>
<linearGradient id="paint2_linear_41_38717" x1="-8.58436" y1="59.3206" x2="45.2814" y2="59.3206" gradientUnits="userSpaceOnUse">
<stop stop-color="#A1F7FF"/>
<stop offset="0.2956" stop-color="#2CACE9"/>
<stop offset="0.6601" stop-color="#5476C3"/>
<stop offset="1" stop-color="#5F2A97"/>
</linearGradient>
<linearGradient id="paint3_linear_41_38717" x1="-8.58445" y1="60.8852" x2="45.2816" y2="60.8852" gradientUnits="userSpaceOnUse">
<stop stop-color="#A1F7FF"/>
<stop offset="0.2956" stop-color="#2CACE9"/>
<stop offset="0.6601" stop-color="#5476C3"/>
<stop offset="1" stop-color="#5F2A97"/>
</linearGradient>
<linearGradient id="paint4_linear_41_38717" x1="-8.58441" y1="53.5398" x2="45.2813" y2="53.5398" gradientUnits="userSpaceOnUse">
<stop stop-color="#A1F7FF"/>
<stop offset="0.2956" stop-color="#2CACE9"/>
<stop offset="0.6601" stop-color="#5476C3"/>
<stop offset="1" stop-color="#5F2A97"/>
</linearGradient>
<linearGradient id="paint5_linear_41_38717" x1="-8.58462" y1="61.2499" x2="45.2818" y2="61.2499" gradientUnits="userSpaceOnUse">
<stop stop-color="#A1F7FF"/>
<stop offset="0.2956" stop-color="#2CACE9"/>
<stop offset="0.6601" stop-color="#5476C3"/>
<stop offset="1" stop-color="#5F2A97"/>
</linearGradient>
<linearGradient id="paint6_linear_41_38717" x1="47.9512" y1="-1.69247" x2="47.9512" y2="24.446" gradientUnits="userSpaceOnUse">
<stop stop-color="#A1F7FF"/>
<stop offset="0.2956" stop-color="#2CACE9"/>
<stop offset="0.6601" stop-color="#5476C3"/>
<stop offset="1" stop-color="#5F2A97"/>
</linearGradient>
<linearGradient id="paint7_linear_41_38717" x1="-0.694899" y1="27.0681" x2="62.7527" y2="27.0681" gradientUnits="userSpaceOnUse">
<stop stop-color="#FFE3C4"/>
<stop offset="0.3333" stop-color="#FFB869"/>
<stop offset="0.6667" stop-color="#FF4F7D"/>
<stop offset="1" stop-color="#8B00B7"/>
</linearGradient>
<linearGradient id="paint8_linear_41_38717" x1="1.93488" y1="39.7253" x2="65.3826" y2="39.7253" gradientUnits="userSpaceOnUse">
<stop stop-color="#FFE3C4"/>
<stop offset="0.3333" stop-color="#FFB869"/>
<stop offset="0.6667" stop-color="#FF4F7D"/>
<stop offset="1" stop-color="#8B00B7"/>
</linearGradient>
<linearGradient id="paint9_linear_41_38717" x1="6.26632" y1="39.9379" x2="69.7141" y2="39.9379" gradientUnits="userSpaceOnUse">
<stop stop-color="#FFE3C4"/>
<stop offset="0.3333" stop-color="#FFB869"/>
<stop offset="0.6667" stop-color="#FF4F7D"/>
<stop offset="1" stop-color="#8B00B7"/>
</linearGradient>
<linearGradient id="paint10_linear_41_38717" x1="-13.2252" y1="30.2226" x2="41.1045" y2="30.2226" gradientUnits="userSpaceOnUse">
<stop stop-color="#A1F7FF"/>
<stop offset="0.2956" stop-color="#2CACE9"/>
<stop offset="0.6601" stop-color="#5476C3"/>
<stop offset="1" stop-color="#5F2A97"/>
</linearGradient>
<linearGradient id="paint11_linear_41_38717" x1="-13.2253" y1="51.0386" x2="41.1045" y2="51.0386" gradientUnits="userSpaceOnUse">
<stop stop-color="#A1F7FF"/>
<stop offset="0.2956" stop-color="#2CACE9"/>
<stop offset="0.6601" stop-color="#5476C3"/>
<stop offset="1" stop-color="#5F2A97"/>
</linearGradient>
<linearGradient id="paint12_linear_41_38717" x1="47.9309" y1="15.0405" x2="32.1506" y2="15.0405" gradientUnits="userSpaceOnUse">
<stop stop-color="#008A45"/>
<stop offset="0.4975" stop-color="#74B810"/>
<stop offset="1" stop-color="#F4FF77"/>
</linearGradient>
<clipPath id="clip0_41_38717">
<rect width="60" height="62" fill="white" transform="translate(0 1)"/>
</clipPath>
</defs>
</svg>
