<svg width="50" height="50" viewBox="0 0 50 50" fill="none" xmlns="http://www.w3.org/2000/svg">
<g clip-path="url(#clip0_317_3256)">
<path d="M49.2188 28.0852C49.2188 24.6836 47.5695 21.4352 44.807 19.3961C44.2438 18.9789 43.5453 18.75 42.8414 18.75C41.9602 18.75 41.1344 19.1023 40.5281 19.7016C40.4148 19.607 40.3117 19.5031 40.1945 19.4133C39.7609 19.082 39.2406 18.8852 38.7062 18.8039L39.0508 15.0156C39.0586 14.925 39.0625 14.8336 39.0625 14.7422C39.0625 13.075 37.7062 11.7188 36.0391 11.7188H35.8359C34.1688 11.7188 32.8125 13.075 32.8125 14.7422C32.8125 14.8336 32.8164 14.925 32.825 15.0164L33.1711 18.8211C32.6758 18.9148 32.1969 19.1062 31.7922 19.4078C31.6523 19.5125 31.5281 19.6328 31.3937 19.743C31.3242 19.6711 31.2508 19.6039 31.175 19.5391C31.2195 19.2789 31.25 19.0156 31.25 18.75C31.25 17.7578 30.9406 16.8086 30.3672 16.0156C30.9406 15.2227 31.25 14.2742 31.25 13.2812C31.25 10.6062 28.9867 8.43828 26.2898 8.60234C25.7883 7.16484 24.6188 6.08125 23.1813 5.66328C22.2297 4.47656 20.7953 3.81797 19.2586 3.91484C18.6117 2.06094 16.8602 0.78125 14.8438 0.78125C13.1523 0.78125 11.6125 1.68594 10.7828 3.12734C8.71406 3.19687 6.92578 4.65703 6.41328 6.64609C3.99453 7.54844 2.34375 9.88984 2.34375 12.5C2.34375 14.593 3.37344 16.5062 5.07734 17.6625C4.82031 18.2492 4.6875 18.8836 4.6875 19.5312C4.6875 20.9375 5.3125 22.2445 6.38516 23.1297C6.29531 23.4922 6.25 23.857 6.25 24.2188C6.25 26.6125 8.05469 28.5938 10.375 28.8727L12.1031 33.7125C11.218 34.3648 10.4641 35.1812 9.88359 36.1187L5.79063 35.2094C5.63516 35.1734 5.475 35.1562 5.31406 35.1562C4.10703 35.1562 3.125 36.1383 3.125 37.3453V37.6547C3.125 37.8734 3.16719 38.0812 3.22734 38.2812H3.125C1.83281 38.2812 0.78125 39.3328 0.78125 40.625C0.78125 41.9172 1.83281 42.9688 3.125 42.9688H3.22734C3.16719 43.1688 3.125 43.3766 3.125 43.5953V43.9047C3.125 45.1117 4.10703 46.0938 5.31406 46.0938C5.475 46.0938 5.63516 46.0766 5.78906 46.0414L9.88359 45.1313C11.4 47.5797 14.1023 49.2188 17.1875 49.2188H17.3711C17.8055 49.2188 18.2453 49.1852 18.6773 49.1188L45.4672 44.9977C47.6406 44.6625 49.2188 42.8242 49.2188 40.625C49.2188 38.8664 48.2008 37.3531 46.6852 36.6398C48.3039 34.7062 49.2188 32.2531 49.2188 29.7273V28.0852ZM39.2445 20.6547C41.5766 22.4375 42.9688 25.2773 42.9688 28.2531V31.1227C42.9688 32.7242 42.5695 34.2922 41.8172 35.6914L35.5523 34.7273C35.2945 33.5938 35.1562 32.4359 35.1562 31.2734V28.1016C35.1562 27.3141 35.2352 26.5273 35.3547 25.7477C35.5461 25.7641 35.7367 25.7812 35.9375 25.7812C38.1648 25.7812 39.8438 24.7734 39.8438 23.4375C39.8438 22.7 39.3336 22.0453 38.45 21.6156L38.5648 20.3516C38.8086 20.4008 39.043 20.4992 39.2445 20.6547ZM35.8359 13.2812H36.0398C36.8453 13.2812 37.5008 13.9367 37.5008 14.7422C37.5008 14.7867 37.4992 14.8313 37.4945 14.875L36.7852 22.6773L37.3812 22.8687C38.0656 23.0875 38.2812 23.3758 38.2812 23.4375C38.2812 23.632 37.45 24.2188 35.9375 24.2188C34.425 24.2188 33.5938 23.632 33.5938 23.4375C33.5938 23.3758 33.8094 23.0875 34.4938 22.868L35.0898 22.6766L34.3805 14.875C34.3766 14.8305 34.375 14.7859 34.375 14.7422C34.375 13.9367 35.0305 13.2812 35.8359 13.2812ZM33.3125 20.3773L33.425 21.6156C32.5414 22.0453 32.0312 22.7 32.0312 23.4375C32.0312 24.2984 32.7336 25.018 33.825 25.4242C33.6852 26.3109 33.5938 27.2063 33.5938 28.1016V31.2734C33.5938 32.3469 33.6969 33.4188 33.8969 34.4727L29.2914 33.7641C29.0406 32.9055 28.9062 32.0203 28.9062 31.1219V28.2523C28.9062 25.2812 30.3344 22.4422 32.7266 20.6594C32.9008 20.5297 33.1016 20.4344 33.3125 20.3773ZM24.8695 33.0836C24.4453 32.0102 24.2188 30.8859 24.2188 29.7273V28.0844C24.2188 25.1766 25.6312 22.3984 27.9961 20.6516C28.293 20.4328 28.6617 20.3125 29.0336 20.3125C29.5055 20.3125 29.9398 20.5023 30.2578 20.8203C28.4156 22.8391 27.3438 25.4906 27.3438 28.2531V31.1227C27.3438 31.9281 27.4398 32.725 27.6141 33.5062L24.8695 33.0836ZM24.943 9.61016L25.0852 10.4141L25.882 10.2367C26.1242 10.1828 26.3469 10.1562 26.5625 10.1562C28.2859 10.1562 29.6875 11.5578 29.6875 13.2812C29.6875 14.1023 29.3688 14.8789 28.7906 15.468L28.2531 16.0156L28.7906 16.5633C29.3688 17.1523 29.6875 17.9289 29.6875 18.75C29.6875 18.7734 29.6828 18.7969 29.6828 18.8211C29.4711 18.7789 29.2555 18.75 29.0336 18.75C28.3297 18.75 27.6313 18.9789 27.068 19.3953C25.6461 20.4445 24.5266 21.8172 23.7672 23.3633C23.4711 22.4414 23.1602 21.5586 22.8398 20.7203C23.5625 16.9031 26.243 14.6937 26.2703 14.6711L25.7812 14.0625L25.293 13.4523C25.1844 13.5391 23.0711 15.2648 21.8844 18.3781C20.2586 14.6453 18.7242 12.2305 18.6258 12.0773L17.3109 12.9227C17.332 12.9547 18.5234 14.8289 19.9102 17.8125C17.5734 16.9328 14.918 17.1758 14.7656 17.1914L14.9211 18.7461C16.0961 18.6281 19.4242 18.6852 20.9789 20.2719C21.5266 21.618 22.0664 23.0938 22.543 24.675C20.168 23.457 17.3344 23.4375 17.1875 23.4375V25C17.2242 25 20.7023 25.0234 22.7609 26.6602C22.6969 27.1305 22.6562 27.6055 22.6562 28.0852V29.7281C22.6562 30.7836 22.8188 31.8156 23.1203 32.8156L18.6773 32.132C18.443 32.0961 18.2062 32.0719 17.9688 32.0547C16.2453 32.0547 14.8438 30.6422 14.8438 28.907C14.8438 28.543 14.9164 28.1695 15.0586 27.7953L15.2867 27.1977L14.7453 26.8555C13.8289 26.2758 13.2812 25.2906 13.2812 24.2188C13.2812 23.6039 13.4617 23.0078 13.8031 22.4937L14.2898 21.7625L13.507 21.3648C11.9219 20.5586 10.9375 18.9586 10.9375 17.1875C10.9375 15.1086 12.3344 13.257 14.3352 12.6844L14.8203 12.5453L14.893 12.0461C15.1156 10.5234 16.4383 9.375 17.9688 9.375C17.9977 9.375 18.0258 9.38125 18.0539 9.38516C18.1086 9.39297 18.1641 9.4 18.2195 9.40391L18.7797 9.44922L19 8.93203C19.493 7.77734 20.6211 7.03125 21.875 7.03125C23.3891 7.03125 24.6789 8.11562 24.943 9.61016ZM11.4883 27.3438H10.9375C9.21406 27.3438 7.8125 25.9422 7.8125 24.2188C7.8125 23.8539 7.88516 23.4805 8.02734 23.1078L8.25625 22.5102L7.71484 22.168C6.79766 21.5883 6.25 20.6031 6.25 19.5312C6.25 18.9164 6.43047 18.3203 6.77188 17.8062L7.25859 17.075L6.47578 16.6773C4.89062 15.8711 3.90625 14.2711 3.90625 12.5C3.90625 10.4211 5.30312 8.56953 7.30312 7.99687L7.78828 7.85781L7.86094 7.35859C8.08438 5.83594 9.40703 4.6875 10.9375 4.6875C10.9672 4.6875 10.9961 4.69375 11.025 4.69766C11.0781 4.70469 11.1312 4.71172 11.1859 4.71641L11.7484 4.76328L11.9695 4.24375C12.4617 3.08984 13.5898 2.34375 14.8438 2.34375C16.3578 2.34375 17.6477 3.42813 17.9117 4.92266L18.0539 5.72656L18.8508 5.54922C19.093 5.49531 19.3156 5.46875 19.5312 5.46875C19.8906 5.46875 20.232 5.54766 20.5586 5.66172C19.4102 5.99766 18.4211 6.76016 17.8141 7.81484C15.7453 7.88438 13.957 9.34453 13.4445 11.3336C11.0258 12.2359 9.375 14.5773 9.375 17.1875C9.375 19.2805 10.4047 21.1938 12.1086 22.35C11.8516 22.9367 11.7188 23.5711 11.7188 24.2188C11.7188 25.625 12.3438 26.932 13.4164 27.818C13.3266 28.1805 13.2812 28.5445 13.2812 28.9062C13.2812 30.2789 13.8719 31.5125 14.807 32.3734C14.343 32.5078 13.8969 32.682 13.4688 32.8891L11.4883 27.3438ZM4.6875 37.6547V37.3453C4.6875 36.9531 5.06719 36.6508 5.45078 36.7336L9.16875 37.5602C9.07812 37.7961 8.99687 38.0359 8.92734 38.2812H5.31406C4.96875 38.2812 4.6875 38 4.6875 37.6547ZM2.34375 40.625C2.34375 40.1945 2.69453 39.8438 3.125 39.8438H5.31406H8.63281C8.61016 40.1016 8.59375 40.3609 8.59375 40.625C8.59375 40.8891 8.61016 41.1484 8.63359 41.4062H5.31406H3.125C2.69453 41.4062 2.34375 41.0555 2.34375 40.625ZM5.44922 44.5164C5.07891 44.5961 4.6875 44.2961 4.6875 43.9047V43.5953C4.6875 43.25 4.96875 42.9688 5.31406 42.9688H8.92656C8.99609 43.2141 9.07812 43.4539 9.16797 43.6898L5.44922 44.5164ZM47.6562 40.625C47.6562 42.0477 46.6359 43.2367 45.2305 43.4531L18.4414 47.5742C18.0867 47.6289 17.7266 47.6562 17.3711 47.6562H17.1875C13.3109 47.6562 10.1562 44.5016 10.1562 40.625C10.1562 36.7484 13.3109 33.5938 17.1875 33.5938H17.3711C17.7266 33.5938 18.0867 33.6211 18.4406 33.675L45.2297 37.7961C46.6359 38.0133 47.6562 39.2023 47.6562 40.625ZM47.6562 29.7273C47.6562 32.1305 46.6836 34.4555 44.9914 36.1789L43.4391 35.9398C44.1523 34.4414 44.5312 32.7984 44.5312 31.1219V28.2523C44.5312 25.4758 43.4734 22.8109 41.6562 20.7891C41.9719 20.4914 42.3906 20.3125 42.8414 20.3125C43.2141 20.3125 43.582 20.4328 43.8789 20.6531C46.2438 22.3984 47.6562 25.1773 47.6562 28.0852V29.7273Z" fill="url(#paint0_linear_317_3256)"/>
<path d="M16.4062 36.7188H17.9688V44.5312H16.4062V36.7188Z" fill="url(#paint1_linear_317_3256)"/>
<path d="M22.6562 36.7188H24.2188V44.5312H22.6562V36.7188Z" fill="url(#paint2_linear_317_3256)"/>
<path d="M28.9062 36.7188H30.4688V44.5312H28.9062V36.7188Z" fill="url(#paint3_linear_317_3256)"/>
<path d="M35.1562 38.2812H36.7188V42.9688H35.1562V38.2812Z" fill="url(#paint4_linear_317_3256)"/>
<path d="M41.4062 39.0625H42.9688V42.1875H41.4062V39.0625Z" fill="url(#paint5_linear_317_3256)"/>
</g>
<defs>
<linearGradient id="paint0_linear_317_3256" x1="25" y1="0.78125" x2="25" y2="49.2188" gradientUnits="userSpaceOnUse">
<stop stop-color="#00AF90"/>
<stop offset="0.979167" stop-color="#00715D"/>
</linearGradient>
<linearGradient id="paint1_linear_317_3256" x1="17.1875" y1="36.7188" x2="17.1875" y2="44.5312" gradientUnits="userSpaceOnUse">
<stop stop-color="#00AF90"/>
<stop offset="0.979167" stop-color="#00715D"/>
</linearGradient>
<linearGradient id="paint2_linear_317_3256" x1="23.4375" y1="36.7188" x2="23.4375" y2="44.5312" gradientUnits="userSpaceOnUse">
<stop stop-color="#00AF90"/>
<stop offset="0.979167" stop-color="#00715D"/>
</linearGradient>
<linearGradient id="paint3_linear_317_3256" x1="29.6875" y1="36.7188" x2="29.6875" y2="44.5312" gradientUnits="userSpaceOnUse">
<stop stop-color="#00AF90"/>
<stop offset="0.979167" stop-color="#00715D"/>
</linearGradient>
<linearGradient id="paint4_linear_317_3256" x1="35.9375" y1="38.2812" x2="35.9375" y2="42.9688" gradientUnits="userSpaceOnUse">
<stop stop-color="#00AF90"/>
<stop offset="0.979167" stop-color="#00715D"/>
</linearGradient>
<linearGradient id="paint5_linear_317_3256" x1="42.1875" y1="39.0625" x2="42.1875" y2="42.1875" gradientUnits="userSpaceOnUse">
<stop stop-color="#00AF90"/>
<stop offset="0.979167" stop-color="#00715D"/>
</linearGradient>
<clipPath id="clip0_317_3256">
<rect width="50" height="50" fill="white"/>
</clipPath>
</defs>
</svg>
