<svg width="50" height="50" viewBox="0 0 50 50" fill="none" xmlns="http://www.w3.org/2000/svg">
<g clip-path="url(#clip0_317_3289)">
<path d="M26.6547 17.6776C27.0592 17.6776 27.3871 17.3497 27.3871 16.9451C27.3871 16.5405 27.0593 16.2127 26.6547 16.2127H23.3457C22.9412 16.2127 22.6133 16.5405 22.6133 16.9451C22.6133 17.3497 22.9411 17.6776 23.3457 17.6776H26.6547Z" fill="url(#paint0_linear_317_3289)"/>
<path d="M20.2292 19.9001C20.2292 20.3046 20.5571 20.6325 20.9617 20.6325H29.0357C29.4402 20.6325 29.7681 20.3047 29.7681 19.9001C29.7681 19.4956 29.4403 19.1677 29.0357 19.1677H20.9617C20.5571 19.1678 20.2292 19.4956 20.2292 19.9001Z" fill="url(#paint1_linear_317_3289)"/>
<path d="M30.2747 34.3112H27.975V32.0115C27.975 30.893 27.0638 29.9829 25.9437 29.9829H24.0535C22.9351 29.9829 22.025 30.893 22.025 32.0115V34.3112H19.7254C18.6068 34.3112 17.6968 35.2225 17.6968 36.3427V38.2327C17.6968 39.3513 18.6068 40.2613 19.7254 40.2613H22.025V42.561C22.025 43.6796 22.9351 44.5896 24.0535 44.5896H25.9436C27.0637 44.5896 27.9749 43.6796 27.9749 42.561V40.2613H30.2746C31.3931 40.2613 32.3031 39.3513 32.3031 38.2327V36.3427C32.3032 35.2225 31.3932 34.3112 30.2747 34.3112ZM30.8385 38.2328C30.8385 38.5385 30.5804 38.7967 30.2747 38.7967H27.2426C26.8381 38.7967 26.5102 39.1245 26.5102 39.5291V42.5612C26.5102 42.8721 26.256 43.1251 25.9436 43.1251H24.0535C23.7427 43.1251 23.4897 42.8721 23.4897 42.5612V39.5291C23.4897 39.1246 23.1619 38.7967 22.7573 38.7967H19.7253C19.4196 38.7967 19.1614 38.5385 19.1614 38.2328V36.3428C19.1614 36.0303 19.4145 35.7761 19.7253 35.7761H22.7573C23.1618 35.7761 23.4897 35.4482 23.4897 35.0437V32.0115C23.4897 31.7007 23.7427 31.4477 24.0535 31.4477H25.9436C26.256 31.4477 26.5102 31.7007 26.5102 32.0115V35.0437C26.5102 35.4481 26.838 35.7761 27.2426 35.7761H30.2747C30.5855 35.7761 30.8385 36.0303 30.8385 36.3428V38.2328Z" fill="url(#paint2_linear_317_3289)"/>
<path d="M44.6869 41.8602H43.5863V26.8902C44.0398 27.1212 44.5453 27.2443 45.0709 27.2443C45.9455 27.2443 46.7655 26.9058 47.3803 26.291C48.6536 25.0176 48.6536 22.9455 47.3803 21.6722L44.203 18.4948V14.6753C44.203 14.2708 43.8752 13.9429 43.4706 13.9429C43.0661 13.9429 42.7382 14.2707 42.7382 14.6753V17.0301L37.4879 11.7796V7.2877H42.7382V11.1893C42.7382 11.5938 43.066 11.9217 43.4706 11.9217C43.8751 11.9217 44.203 11.5938 44.203 11.1893V7.2877H44.2729C44.979 7.2877 45.5534 6.71328 45.5534 6.00723V2.45547C45.5534 1.74932 44.979 1.1749 44.2729 1.1749H35.9533C35.2473 1.1749 34.6729 1.74932 34.6729 2.45547V6.00723C34.6729 6.71328 35.2473 7.2877 35.9533 7.2877H36.0232V10.3147L26.2123 0.503516C25.891 0.179688 25.4615 0.000878906 25.0031 0C25.002 0 25.0009 0 24.9997 0C24.541 0 24.1104 0.178027 23.787 0.501465C23.787 0.501465 7.71621 16.5728 2.62061 21.6713C2.0041 22.286 1.66455 23.1064 1.66455 23.9813C1.66455 24.8563 2.004 25.6768 2.61992 26.291C3.25586 26.9269 4.0916 27.2448 4.92803 27.2448C5.43828 27.2448 5.94854 27.1257 6.41387 26.889V33.4804C6.41387 33.8725 6.7417 34.1902 7.14629 34.1902C7.55088 34.1902 7.87871 33.8725 7.87871 33.4804V25.651L25.0001 8.52627L42.1217 25.651V41.8602H36.8551C36.9623 41.5812 37.0606 41.2974 37.1491 41.0088C38.1437 37.7631 37.8148 34.3251 36.2233 31.3281C32.9359 25.1402 25.2273 22.7783 19.0395 26.0627C19.0394 26.0628 19.0394 26.0628 19.0393 26.0629C13.3053 29.1093 10.8582 35.9502 13.1435 41.8602H7.87852V36.8617C7.87852 36.4696 7.55068 36.152 7.14609 36.152C6.7415 36.152 6.41367 36.4697 6.41367 36.8617V41.8602H5.31045C3.75889 41.8602 2.49668 43.1224 2.49668 44.6739C2.49668 46.2271 3.75889 47.4906 5.31045 47.4906H17.414C18.5647 48.3448 19.8657 49.005 21.2768 49.437C22.5061 49.8135 23.7631 50 25.0134 50C27.0635 50 29.0955 49.4985 30.9578 48.51C31.5271 48.2078 32.0674 47.8667 32.5762 47.4905H44.6869C46.2399 47.4905 47.5034 46.227 47.5034 44.6738C47.5034 43.1224 46.24 41.8602 44.6869 41.8602ZM36.1376 2.63965H44.0888V5.82305H36.1376V2.63965ZM25.8378 7.29248C25.3722 6.83428 24.6186 6.83594 24.1581 7.29668L6.20352 25.2546C5.4999 25.9562 4.35684 25.9566 3.65479 25.2546C3.31582 24.9165 3.1292 24.4645 3.1292 23.9815C3.1292 23.4986 3.31582 23.0465 3.65566 22.7077C8.75215 17.6083 24.8228 1.53721 24.8228 1.53721C24.8857 1.47422 24.9604 1.46475 24.9997 1.46475H25.0002C25.0386 1.46484 25.1118 1.47412 25.1744 1.53721L46.3444 22.7078C47.0468 23.4101 47.0468 24.5528 46.3444 25.2553C46.0064 25.5933 45.5542 25.7795 45.0709 25.7795C44.5876 25.7795 44.1353 25.5933 43.7973 25.2553L25.8378 7.29248ZM5.31045 46.0258C4.5666 46.0258 3.96143 45.4192 3.96143 44.6738C3.96143 43.93 4.5666 43.3248 5.31045 43.3248H13.8192C14.3558 44.3191 15.0104 45.2247 15.766 46.0257L5.31045 46.0258ZM30.2711 47.2161C27.6185 48.6243 24.5765 48.9153 21.7058 48.0365C18.8347 47.1573 16.4782 45.2126 15.0704 42.5602C12.1622 37.0858 14.2508 30.2655 19.7265 27.3563L19.7263 27.3565C25.2008 24.45 32.0212 26.5404 34.9298 32.0152C36.3377 34.6665 36.6284 37.708 35.7486 40.5797C34.8686 43.4516 32.9232 45.8084 30.2711 47.2161ZM44.6869 46.0258H34.2321C34.998 45.2182 35.6542 44.3118 36.1844 43.3249H44.6869C45.4322 43.3249 46.0387 43.9301 46.0387 44.6739C46.0387 45.4193 45.4323 46.0258 44.6869 46.0258Z" fill="url(#paint3_linear_317_3289)"/>
</g>
<defs>
<linearGradient id="paint0_linear_317_3289" x1="25.0002" y1="16.2127" x2="25.0002" y2="17.6776" gradientUnits="userSpaceOnUse">
<stop stop-color="#FF7888"/>
<stop offset="0.947917" stop-color="#C10000"/>
</linearGradient>
<linearGradient id="paint1_linear_317_3289" x1="24.9987" y1="19.1677" x2="24.9987" y2="20.6325" gradientUnits="userSpaceOnUse">
<stop stop-color="#FF7888"/>
<stop offset="0.947917" stop-color="#C10000"/>
</linearGradient>
<linearGradient id="paint2_linear_317_3289" x1="25" y1="29.9829" x2="25" y2="44.5896" gradientUnits="userSpaceOnUse">
<stop stop-color="#FF7888"/>
<stop offset="0.947917" stop-color="#C10000"/>
</linearGradient>
<linearGradient id="paint3_linear_317_3289" x1="24.9999" y1="0" x2="24.9999" y2="50" gradientUnits="userSpaceOnUse">
<stop stop-color="#FF7888"/>
<stop offset="0.947917" stop-color="#C10000"/>
</linearGradient>
<clipPath id="clip0_317_3289">
<rect width="50" height="50" fill="white"/>
</clipPath>
</defs>
</svg>
